inDegrees=no
num_controls=7
num_derivatives=13
num_iterations=172
num_multipliers=7
num_parameters=0
num_slacks=7
num_states=26
objective=5.678234
objective_accelerations=0.594501
objective_balance=0.018356
objective_effort=0.452406
objective_height=4.496714
objective_ligament=0.116258
solver_duration=1524.153416
status=Solve_Succeeded
success=true
DataType=double
version=3
OpenSimVersion=4.4-2022-07-23-0e9fedc
endheader
time	/jointset/ground_pelvis/pelvis_tilt/value	/jointset/ground_pelvis/pelvis_tx/value	/jointset/ground_pelvis/pelvis_ty/value	/jointset/hip_r/hip_flexion_r/value	/jointset/hip_r/hip_adduction_r/value	/jointset/hip_r/hip_rotation_r/value	/jointset/back/lumbar_extension/value	/jointset/patellofemoral_r/patellar_flexion_r/value	/jointset/knee_r/knee_flexion_r/value	/jointset/knee_r/knee_adduction_r/value	/jointset/knee_r/knee_rotation_r/value	/jointset/ankle_r/ankle_angle_r/value	/jointset/subtalar_r/subtalar_angle_r/value	/jointset/ground_pelvis/pelvis_tilt/speed	/jointset/ground_pelvis/pelvis_tx/speed	/jointset/ground_pelvis/pelvis_ty/speed	/jointset/hip_r/hip_flexion_r/speed	/jointset/hip_r/hip_adduction_r/speed	/jointset/hip_r/hip_rotation_r/speed	/jointset/back/lumbar_extension/speed	/jointset/patellofemoral_r/patellar_flexion_r/speed	/jointset/knee_r/knee_flexion_r/speed	/jointset/knee_r/knee_adduction_r/speed	/jointset/knee_r/knee_rotation_r/speed	/jointset/ankle_r/ankle_angle_r/speed	/jointset/subtalar_r/subtalar_angle_r/speed	/forceset/tau_hip_flexion_r	/forceset/tau_hip_adduction_r	/forceset/tau_hip_rotation_r	/forceset/tau_knee_flexion_r	/forceset/tau_ankle_angle_r	/forceset/tau_subtalar_angle_r	/forceset/tau_lumbar_extension	lambda_cid13_p0	lambda_cid14_p0	lambda_cid14_p1	lambda_cid14_p2	lambda_cid14_p3	lambda_cid14_p4	lambda_cid14_p5	/jointset/ground_pelvis/pelvis_tilt/accel	/jointset/ground_pelvis/pelvis_tx/accel	/jointset/ground_pelvis/pelvis_ty/accel	/jointset/hip_r/hip_flexion_r/accel	/jointset/hip_r/hip_adduction_r/accel	/jointset/hip_r/hip_rotation_r/accel	/jointset/back/lumbar_extension/accel	/jointset/patellofemoral_r/patellar_flexion_r/accel	/jointset/knee_r/knee_flexion_r/accel	/jointset/knee_r/knee_adduction_r/accel	/jointset/knee_r/knee_rotation_r/accel	/jointset/ankle_r/ankle_angle_r/accel	/jointset/subtalar_r/subtalar_angle_r/accel	gamma_cid13_p0	gamma_cid14_p0	gamma_cid14_p1	gamma_cid14_p2	gamma_cid14_p3	gamma_cid14_p4	gamma_cid14_p5
1	-0.2309527269253941	-0.01030585206706749	0.6399550747004803	1.41215141902857	-0.2380490555015263	-0.09096442387513559	-0.7853981633974483	1.498050056480401	1.498050056480212	-0.1745329251994329	0.1745328590189555	0.436235225095998	0.1763540736674387	0.07091573847991774	0.005822859818960354	0.01519114095496384	-0.1019326462152612	-0.001188039693841692	-0.003311746384390838	-0.0001036582654120239	-0.0163958339256235	-0.01639583392562311	0.002561600052505006	-0.0001598834106479391	0.01476153343732032	0.005454904127062809	-0.3311993022823541	0.01992574147945939	0.01037452419255529	-0.4561073778956597	-0.02639756983240685	0.012120993929781	0.3561439197297155	-0.04118875991955581	-59.26077612461866	-7.509227917511459	4.357337928019101	7.539082307873066	-767.3675146201757	76.15714138411985	1.282507031109645	0.1523871859738005	1.787744236846885	-5.379042354017853	0.2758275033376392	-0.7723096230474277	-0.02503285722132799	-4.98300317778129	-4.983003177781281	0.4604282473313925	-0.0235076001117781	-1.01360687328465	0.01677363033432193	1.443555517670339e-09	8.844507204822216e-10	9.252769303482428e-09	8.909464092102857e-09	9.203085247889587e-10	-5.640025237303578e-09	1.700564182438197e-08
1.01	-0.2301804282573423	-0.01023986233000387	0.6401962176996824	1.410864186544291	-0.2380472162470966	-0.09103340478537629	-0.7853981633974483	1.497637440818427	1.497637440818415	-0.1744815257871257	0.1745297016668879	0.4363323129985824	0.1764093383493348	0.08351022700877495	0.007392467814812575	0.03303449527662449	-0.1554975690367454	0.001548178300273195	-0.01043221557214885	0.0002591357222024286	-0.06612009190858305	-0.06612009190858223	0.007781628655102428	-0.0004682705419146209	0.004675982754174717	0.005591423205346563	-0.3317619024775348	0.01995330666644409	0.01043791742102636	-0.4561290732701058	-0.02656212924295328	0.01213018750395701	0.3569985144429441	-0.04118482639175567	-59.33953608664474	-7.516624726177993	4.355775154186449	7.349035073898114	-767.9100005467649	76.17922967702603	1.242855998311584	0.1618547977384646	1.782184161089196	-5.342773782984503	0.2713659940800883	-0.6740812403062328	0.09017722290666544	-4.966056955760791	-4.966056955760722	0.5620851109436624	-0.03399889503173142	-1.003231295417609	0.01110759770210464	4.129362030643426e-09	4.194570782561956e-09	2.893498263289525e-08	2.811366206114791e-08	7.922257291976552e-10	-1.157709753655938e-08	5.409207503760894e-08
1.02	-0.2292831974570932	-0.01015765507471221	0.640615704868354	1.409041793524454	-0.2380182454033979	-0.09117202352222897	-0.7853898882172345	1.496727798607182	1.496727798607338	-0.1743760601839731	0.1745235615184119	0.4363291177765887	0.176465771532239	0.09590216491914717	0.009066363464568482	0.05085997484883241	-0.2089647533290595	0.0042382781596553	-0.01723931170655642	0.001551597555969907	-0.1158011437798429	-0.1158011437798415	0.01337345502649021	-0.0007564426890848711	-0.005297653112494993	0.005688604328697418	-0.3323245026726621	0.01998087185342917	0.01050131064948354	-0.4561507686445513	-0.02672668865350834	0.01213938107812973	0.3578531091562223	-0.04118857738728295	-59.42635158031244	-7.522398224471602	4.350487932783953	7.161634205110992	-768.5794638604059	76.23063209586944	1.241996907412656	0.1732447167545389	1.784169286956339	-5.359494648183836	0.266603876391068	-0.7096350123773542	0.1609007120091887	-4.974361955441347	-4.974361955441302	0.534787801089473	-0.01946460329245348	-0.9912239099894724	0.008906039347713545	9.089966271380687e-09	1.234889125257645e-08	5.908417665699644e-08	6.405553191715229e-08	-4.154335646601276e-09	-1.873109897016395e-08	1.186373329988855e-07
1.03	-0.2282631459110372	-0.01005826082376382	0.641213332871707	1.406685432551461	-0.2379626308522345	-0.09137707340082162	-0.7853637997886975	1.495321393872502	1.49532139387258	-0.1742126267619402	0.1745147870212655	0.4362264018680215	0.1765227502807734	0.1080646157974787	0.01082264801903112	0.06866014899805892	-0.2622687768128791	0.006875618872297533	-0.0237146424501784	0.003846409342879418	-0.1654898834063965	-0.1654898834064006	0.01938875497200357	-0.0009837524775188143	-0.01526019096725438	0.005680518390108562	-0.3331014818222694	0.02021831500573778	0.01057520854188304	-0.4555378714189097	-0.02774857872816284	0.01215873917419109	0.3588628015081166	-0.04121078329430754	-59.79124754996844	-7.562901285732917	4.339834238028086	7.321903367390867	-769.163847170227	76.1524441063257	1.196844466424223	0.1783426585750532	1.777114732408001	-5.310052346022718	0.2609603640234487	-0.6080721401378698	0.2908195907544667	-4.967644848778388	-4.967644848779258	0.6462294832163409	-0.0221309535475667	-1.000967970894715	-0.009634004544546226	1.407378273382984e-08	2.055264233899846e-08	8.93401766065537e-08	1.001681943434319e-07	-9.150065171177863e-09	-2.589751804799658e-08	1.834627830494281e-07
1.04	-0.2271227747985209	-0.009940999260514245	0.641988797267253	1.403797192114116	-0.2378809106548811	-0.0916451945938061	-0.7853093536065461	1.493417798765054	1.493417798765054	-0.1739867746620613	0.1745041860688473	0.4360236207313711	0.1765788545511055	0.1199660782110402	0.01263982592480383	0.08642725328737499	-0.3153406461983691	0.009459407397844691	-0.02985357458512943	0.0072231482786952	-0.2152392183335902	-0.2152392183336001	0.02585719059487968	-0.001121733743100003	-0.02531069872903512	0.005513708688224849	-0.3338784609719054	0.0204557581580462	0.01064910643424319	-0.4549249741932722	-0.02877046880281217	0.01217809727025574	0.3598724938599849	-0.04124060259759551	-60.16420848657408	-7.601409765575784	4.324970920679331	7.482817502921145	-769.8776196494862	76.10522814861852	1.189799214458666	0.1854233870165485	1.777555314974252	-5.313063828517925	0.2558934389720481	-0.6423552906431683	0.377286141790452	-4.98648101556936	-4.98648101556937	0.6254149365620295	-0.001598898721885201	-1.008817891393756	-0.02283871331127408	1.9675863443318e-08	2.935618060248495e-08	1.172212327757825e-07	1.421250179777572e-07	-1.400092224804078e-08	-3.160402586861325e-08	2.503680351381274e-07
1.05	-0.2258647152324266	-0.009805216379592143	0.6429416673156411	1.400379587424447	-0.2377735663405302	-0.09197307199234607	-0.785215742926078	1.491016602054376	1.491016602054267	-0.1736941731757709	0.1744924901311827	0.4357199446073343	0.1766326239409061	0.1315970900446082	0.01453139756230425	0.1041309565666695	-0.3681190952930469	0.01200759579433933	-0.03567219892016122	0.0116818920569527	-0.2649910898054567	-0.2649910898054545	0.03271457459616617	-0.001222804137185613	-0.03543402373402398	0.005229703389108885	-0.3341802619966769	0.02060586130025	0.01078249013843009	-0.4541653131043647	-0.02934939224372	0.01218065573772419	0.3605271773929609	-0.04127278832988376	-60.35945493591513	-7.617558703521262	4.308211962260385	7.480992517342046	-770.095521376431	76.05642624429207	1.142448309148363	0.1932173290978129	1.764400350704717	-5.251048569591213	0.2540266417056873	-0.5441456287149726	0.5076041321829811	-4.968190229782189	-4.968190229780394	0.7236173237134788	-0.01511411004354138	-1.015513555261877	-0.03270665713159249	2.529726491052613e-08	3.81784622152547e-08	1.45028071951876e-07	1.84264471649834e-07	-1.884725206091265e-08	-3.726491146244193e-08	3.173382810405192e-07
1.06	-0.224491806319728	-0.009650079126898822	0.6440710989000819	1.396436035619895	-0.2376407911218707	-0.09235764155900479	-0.7850720576805599	1.488118156625623	1.488118156625411	-0.1733314544111056	0.1744796328895054	0.4353147504832076	0.1766832482339315	0.1429359475318756	0.01651070027904735	0.1217395604978666	-0.4205300691736664	0.01454558825954347	-0.04119200820646608	0.01723806128879432	-0.3146889619487993	-0.3146889619487856	0.039880646269516	-0.001353994542935418	-0.04561429874743032	0.004884689333197846	-0.3344820630214773	0.02075596444242251	0.01091587384262613	-0.453405652015457	-0.02992831568463218	0.01218321420513144	0.3611818609259096	-0.04131265927085392	-60.56280399734144	-7.631420375947858	4.286854831588387	7.479248645622188	-770.4447151247711	76.04013806124151	1.131368345198583	0.2029696028650759	1.758535445354795	-5.239568785706282	0.2538542527139432	-0.5825922808977851	0.5967712325072908	-4.975681149864602	-4.975681149864727	0.6871524709747049	-0.007622901054711596	-1.020207893077267	-0.03504046467030238	2.999330845708331e-08	4.583875802861642e-08	1.740864255344551e-07	2.208277226511903e-07	-2.318095902387837e-08	-4.328191690860708e-08	3.783880318752218e-07
1.07	-0.2230067089511964	-0.009474687694459165	0.6453761017507103	1.391970052144876	-0.2374827999040714	-0.0927959689798827	-0.7848676901691028	1.484723086592988	1.484723086592905	-0.1728954447618959	0.1744655592708834	0.434807425111583	0.1767298819197833	0.1540583654857012	0.01858446525268091	0.1392410802397966	-0.4726191277505337	0.01704132627471048	-0.04642667134610139	0.02378480993568101	-0.3643078018693061	-0.3643078018692947	0.04738148074064132	-0.001445851381433295	-0.0558643298975733	0.004411684774340546	-0.3344088641530475	0.02084998940942713	0.01109897717804108	-0.4524004880610578	-0.03034912277089102	0.01217803576090361	0.3615148325143322	-0.04135909292224751	-60.68701921954507	-7.632834967416392	4.261284653682357	7.443093575188803	-770.3643672212997	75.99942597135826	1.098915299588285	0.2121062427834332	1.742960881480788	-5.186439390364309	0.2457678274159091	-0.4868626466575118	0.7060320207509923	-4.952406000540111	-4.952406000540378	0.7905748721578728	-0.007666443460449356	-1.029432688032624	-0.05792249400879156	3.46401308376484e-08	5.343724608669047e-08	2.032113490322729e-07	2.570943671275083e-07	-2.748739881397674e-08	-4.931786490010928e-08	4.391228627595154e-07
1.08	-0.2214111400473033	-0.009278053352648988	0.6468555199273317	1.38698460508476	-0.2373001844558207	-0.09328523489537974	-0.7845933741031812	1.480832344043668	1.480832344043704	-0.1723826215805774	0.1744510272102426	0.4341971930360454	0.1767708871515435	0.1650302546040775	0.02075928215315087	0.156622625696487	-0.5244227861948927	0.01947043434978387	-0.05137970713217891	0.03122777218143376	-0.4138234652856682	-0.4138234652856584	0.05524335269082219	-0.001445682948456758	-0.06619563952970882	0.003758998514870081	-0.3343356652845736	0.02094401437645591	0.01128208051342211	-0.4513953241066603	-0.03076992985714973	0.01217285731672208	0.361847804102796	-0.0414132453982499	-60.81940163583491	-7.631721335499085	4.230789762737771	7.406066157235114	-770.4178304801446	75.99246822269325	1.101262578108736	0.2231799882323514	1.734540588306899	-5.182488759204633	0.2405282646952206	-0.52626681018623	0.776013952280512	-4.955045849035664	-4.955045849035661	0.7593599667858206	0.01078215324018214	-1.036463589475785	-0.07097680479294728	3.937555705235154e-08	6.065641200823055e-08	2.253188389759846e-07	2.937690095264066e-07	-3.128945240218531e-08	-5.394658903373047e-08	4.923974887411224e-07
